Coordinates
version=1
nRows=37
nColumns=30
inDegrees=yes

Units are S.I. units (second, meters, Newtons, ...)
Angles are in degrees.

endheader
time	floatyaw	floatroll	floatpitch	floatx	floaty	floatz	pro_sup_l	deviation_l	flexion_l	cmc_flexion_l	cmc_abduction_l	mp_flexion_l	ip_flexion_l	2mcp_flexion_l	2mcp_abduction_l	2pm_flexion_l	2md_flexion_l	3mcp_flexion_l	3mcp_abduction_l	3pm_flexion_l	3md_flexion_l	4mcp_flexion_l	4mcp_abduction_l	4pm_flexion_l	4md_flexion_l	5mcp_flexion_l	5mcp_abduction_l	5pm_flexion_l	5md_flexion_l
-0.995000	3.029614	-4.103828	101.268469	-0.102855	-0.207478	-0.044824	86.404516	2.012519	0.605906	16.281063	0.143837	-22.493316	-35.468187	39.022555	7.964242	50.482556	33.619135	24.555077	4.558816	48.471419	30.268354	15.060418	-4.408991	61.879537	40.255951	9.538491	-9.137038	59.819541	40.065284
-0.985000	3.029614	-4.103828	101.268469	-0.102838	-0.207488	-0.044817	86.443312	2.032174	0.582648	16.278250	0.117214	-22.508760	-35.470974	39.046395	7.945634	50.511386	33.639572	24.576616	4.548679	48.493124	30.286491	15.072844	-4.406898	61.883031	40.263842	9.509458	-9.097119	59.848006	40.087483
-0.975000	3.029614	-4.103828	101.268469	-0.102821	-0.207493	-0.044805	86.479666	2.046659	0.564526	16.275764	0.093281	-22.537334	-35.486516	39.072926	7.938108	50.546453	33.662076	24.592658	4.542009	48.516447	30.305890	15.087822	-4.407697	61.890075	40.272867	9.480976	-9.064972	59.884136	40.112835
-0.965000	3.029614	-4.103828	101.268469	-0.102810	-0.207494	-0.044784	86.507099	2.046381	0.555066	16.275291	0.076792	-22.573866	-35.513137	39.095555	7.942178	50.584052	33.684357	24.598912	4.541028	48.536625	30.324098	15.099817	-4.410574	61.901892	40.283250	9.474968	-9.057948	59.927421	40.137627
-0.955000	3.029614	-4.103828	101.268469	-0.102804	-0.207492	-0.044750	86.522602	2.027678	0.555416	16.276437	0.071508	-22.612331	-35.546657	39.110104	7.954466	50.620725	33.705085	24.595295	4.544862	48.552508	30.340502	15.104953	-4.414571	61.918343	40.295233	9.497664	-9.080766	59.973218	40.158683
-0.945000	3.029614	-4.103828	101.268469	-0.102804	-0.207486	-0.044704	86.526215	1.993154	0.564908	16.276174	0.080822	-22.647610	-35.581663	39.115387	7.969541	50.654992	33.724658	24.583703	4.550742	48.567563	30.357157	15.100362	-4.417875	61.937036	40.308716	9.541837	-9.126951	60.013386	40.173523
-0.935000	3.029614	-4.103828	101.268469	-0.102805	-0.207477	-0.044651	86.519912	1.949887	0.581279	16.270669	0.107157	-22.676128	-35.613019	39.112294	7.981969	50.687399	33.744575	24.566329	4.555931	48.587816	30.377489	15.083760	-4.417681	61.953510	40.322848	9.596309	-9.184950	60.039503	40.180432
-0.925000	3.029614	-4.103828	101.268469	-0.102805	-0.207465	-0.044599	86.506433	1.906395	0.600317	16.258357	0.149912	-22.695542	-35.637038	39.102697	7.988101	50.718932	33.765702	24.546163	4.559112	48.618131	30.403675	15.054665	-4.411218	61.963067	40.335968	9.654796	-9.244478	60.047175	40.178839
-0.915000	3.029614	-4.103828	101.268469	-0.102801	-0.207456	-0.044556	86.488551	1.869664	0.615743	16.241956	0.203516	-22.704239	-35.652008	39.089184	7.987284	50.749208	33.786685	24.528652	4.560558	48.659077	30.434384	15.016591	-4.397412	61.963397	40.346033	9.718544	-9.299893	60.039165	40.169945
-0.905000	3.029614	-4.103828	101.268469	-0.102791	-0.207457	-0.044527	86.469186	1.843703	0.620351	16.227647	0.257465	-22.701571	-35.658195	39.075359	7.981966	50.775789	33.803714	24.522110	4.561256	48.705803	30.464272	14.978088	-4.377992	61.956114	40.351255	9.792182	-9.349597	60.025100	40.156943
-0.895000	3.029614	-4.103828	101.268469	-0.102775	-0.207475	-0.044514	86.452152	1.830120	0.608521	16.221631	0.299018	-22.688970	-35.657669	39.065698	7.976316	50.794996	33.811923	24.535332	4.561763	48.749248	30.485571	14.951129	-4.357302	61.945761	40.350470	9.876175	-9.392450	60.016923	40.144151
-0.885000	3.029614	-4.103828	101.268469	-0.102757	-0.207510	-0.044516	86.442388	1.829487	0.578955	16.226229	0.317657	-22.670864	-35.653890	39.064122	7.973926	50.803577	33.807713	24.573109	4.561636	48.779259	30.491194	14.947108	-4.340851	61.936799	40.343170	9.961388	-9.424159	60.022145	40.135156
-0.875000	3.029614	-4.103828	101.268469	-0.102738	-0.207557	-0.044530	86.444530	1.841654	0.536089	16.238139	0.309315	-22.653987	-35.650747	39.071588	7.976032	50.800338	33.790826	24.632176	4.559814	48.788592	30.478107	14.972062	-4.333143	61.930777	40.329543	10.030711	-9.437481	60.039452	40.131167
-0.865000	3.029614	-4.103828	101.268469	-0.102721	-0.207602	-0.044549	86.460327	1.864666	0.489080	16.249938	0.278276	-22.644836	-35.651139	39.084421	7.981327	50.786954	33.765028	24.700574	4.555609	48.776128	30.449288	15.023321	-4.335652	61.925632	40.310729	10.068134	-9.427321	60.060132	40.130817
-0.855000	3.029614	-4.103828	101.268469	-0.102711	-0.207635	-0.044569	86.486952	1.893861	0.448494	16.253802	0.235511	-22.646685	-35.655817	39.095396	7.987158	50.767584	33.736879	24.761844	4.549443	48.747614	30.412997	15.089488	-4.345975	61.917213	40.288918	10.069418	-9.396890	60.074328	40.131494
-0.845000	3.029614	-4.103828	101.268469	-0.102706	-0.207648	-0.044586	86.517756	1.922731	0.422210	16.245220	0.194258	-22.658104	-35.663330	39.097751	7.991062	50.747412	33.713106	24.802387	4.542744	48.713387	30.379504	15.154126	-4.358765	61.901569	40.266888	10.046370	-9.359270	60.077310	40.131083
-0.835000	3.029614	-4.103828	101.268469	-0.102707	-0.207643	-0.044597	86.544983	1.945238	0.412759	16.224872	0.165335	-22.673937	-35.671223	39.089421	7.991815	50.730728	33.697957	24.817677	4.537175	48.684192	30.356979	15.201389	-4.368025	61.876643	40.247160	10.021620	-9.332500	60.071620	40.128965
-0.825000	3.029614	-4.103828	101.268469	-0.102711	-0.207625	-0.044601	86.562699	1.957989	0.417487	16.198087	0.154535	-22.688081	-35.677690	39.074061	7.989817	50.719494	33.691974	24.813445	4.533922	48.667007	30.348621	15.221069	-4.369615	61.843127	40.231499	10.017900	-9.331529	60.064555	40.125864
-0.815000	3.029614	-4.103828	101.268469	-0.102715	-0.207602	-0.044599	86.568812	1.961126	0.431036	16.172505	0.162444	-22.696339	-35.682569	39.057966	7.986858	50.713223	33.692705	24.801388	4.533485	48.662430	30.352068	15.211738	-4.362998	61.804842	40.221102	10.048393	-9.361754	60.063318	40.122878
-0.805000	3.029614	-4.103828	101.268469	-0.102716	-0.207578	-0.044594	86.565720	1.957786	0.448226	16.155198	0.185511	-22.697792	-35.687066	39.045511	7.985291	50.710282	33.696733	24.792580	4.535881	48.664518	30.360874	15.181865	-4.351773	61.768554	40.217052	10.112031	-9.416444	60.070493	40.120263
-0.795000	3.029614	-4.103828	101.268469	-0.102715	-0.207556	-0.044588	86.559055	1.952369	0.465545	16.150366	0.217438	-22.694291	-35.692557	39.036616	7.986790	50.709799	33.701790	24.792543	4.540918	48.663385	30.367356	15.148519	-4.342701	61.742665	40.220373	10.194344	-9.478374	60.081792	40.116651
-0.785000	3.029614	-4.103828	101.268469	-0.102714	-0.207538	-0.044583	86.554388	1.948126	0.480768	16.158249	0.250828	-22.688858	-35.699466	39.027848	7.991241	50.712904	33.707879	24.800081	4.548354	48.649966	30.365915	15.132534	-4.343073	61.734642	40.231508	10.273215	-9.525601	60.087384	40.109346
-0.775000	3.029614	-4.103828	101.268469	-0.102714	-0.207525	-0.044580	86.553581	1.945451	0.491577	16.175436	0.278922	-22.684151	-35.707005	39.016033	7.996532	50.722402	33.716901	24.809752	4.557882	48.621012	30.355580	15.150360	-4.357031	61.748108	40.249683	10.327858	-9.540258	60.076923	40.095948
-0.765000	3.029614	-4.103828	101.268469	-0.102715	-0.207522	-0.044580	86.553756	1.942464	0.494587	16.196462	0.296642	-22.681622	-35.713768	39.001751	7.999563	50.740894	33.730974	24.816430	4.568784	48.581474	30.340413	15.205784	-4.382637	61.781010	40.272687	10.347513	-9.516703	60.046181	40.076527
-0.755000	3.029614	-4.103828	101.268469	-0.102715	-0.207536	-0.044584	86.550297	1.937981	0.485727	16.216251	0.300344	-22.681375	-35.718638	38.990306	7.998020	50.768360	33.750347	24.819482	4.579438	48.542452	30.327191	15.286598	-4.411831	61.826035	40.297303	10.335577	-9.464289	60.001306	40.054849
-0.745000	3.029614	-4.103828	101.268469	-0.102709	-0.207569	-0.044593	86.541610	1.934500	0.461948	16.232364	0.287130	-22.682522	-35.721419	38.989310	7.991821	50.800783	33.772190	24.823958	4.587218	48.515619	30.321582	15.369455	-4.434008	61.873505	40.320288	10.307021	-9.402574	59.957593	40.037462
-0.735000	3.029614	-4.103828	101.268469	-0.102696	-0.207618	-0.044610	86.531366	1.938242	0.423297	16.245726	0.255448	-22.683918	-35.722984	39.004190	7.983282	50.831010	33.791234	24.837707	4.589353	48.507609	30.325246	15.430966	-4.441492	61.915360	40.339403	10.280796	-9.351591	59.932951	40.030891
-0.725000	3.029614	-4.103828	101.268469	-0.102677	-0.207678	-0.044637	86.525885	1.955523	0.373987	16.259261	0.207308	-22.685073	-35.724985	39.034212	7.975912	50.851691	33.802148	24.866004	4.584446	48.517684	30.335629	15.458435	-4.433523	61.947883	40.353879	10.271581	-9.323082	59.939548	40.038444
-0.715000	3.029614	-4.103828	101.268469	-0.102654	-0.207737	-0.044673	86.528678	1.988093	0.321490	16.275455	0.149831	-22.686746	-35.729298	39.071594	7.972631	50.858731	33.802303	24.907299	4.573667	48.539245	30.348060	15.453802	-4.416227	61.971671	40.364165	10.284950	-9.317580	59.977937	40.058327
-0.705000	3.029614	-4.103828	101.268469	-0.102631	-0.207788	-0.044716	86.536702	2.031152	0.273845	16.294617	0.093355	-22.690786	-35.737404	39.104633	7.974323	50.853285	33.793231	24.953066	4.560648	48.563270	30.358275	15.429488	-4.398749	61.989611	40.371305	10.317456	-9.327976	60.036383	40.084019
-0.695000	3.029614	-4.103828	101.268469	-0.102613	-0.207828	-0.044763	86.541530	2.075664	0.236700	16.314786	0.046433	-22.699196	-35.749888	39.123439	7.979261	50.841309	33.779972	24.991853	4.550009	48.581533	30.363814	15.400263	-4.388186	62.004645	40.376412	10.360343	-9.345950	60.095609	40.106769
-0.685000	3.029614	-4.103828	101.268469	-0.102602	-0.207858	-0.044812	86.534759	2.113298	0.211806	16.332922	0.011503	-22.712957	-35.766217	39.124976	7.983573	50.830995	33.768798	25.014946	4.545316	48.588671	30.364147	15.376813	-4.386404	62.018380	40.380246	10.403992	-9.366340	60.136870	40.119265
-0.675000	3.029614	-4.103828	101.268469	-0.102598	-0.207880	-0.044860	86.513923	2.140735	0.197449	16.346467	-0.015337	-22.731199	-35.784842	39.114429	7.982720	50.829382	33.764591	25.020429	4.547575	48.583119	30.360160	15.364182	-4.390264	62.030554	40.382805	10.440441	-9.386723	60.149709	40.118877
-0.665000	3.029614	-4.103828	101.268469	-0.102598	-0.207896	-0.044906	86.484795	2.160755	0.189832	16.354666	-0.040650	-22.751095	-35.803559	39.102147	7.973638	50.839621	33.769086	25.013774	4.555025	48.567148	30.353594	15.364244	-4.394615	62.039222	40.383072	10.463502	-9.403643	60.135891	40.108908
-0.655000	3.029614	-4.103828	101.268469	-0.102599	-0.207906	-0.044949	86.458223	2.179522	0.184352	16.359143	-0.069145	-22.768467	-35.819928	39.098090	7.956652	50.859992	33.780568	25.004769	4.564253	48.546231	30.346730	15.378585	-4.395841	62.041737	40.379358	10.468709	-9.410242	60.107939	40.097072
-0.645000	3.029614	-4.103828	101.268469	-0.102598	-0.207912	-0.044988	86.443333	2.201809	0.176773	16.363322	-0.101272	-22.778841	-35.831576	39.106866	7.935980	50.884840	33.794889	25.002298	4.571964	48.527888	30.342286	15.408427	-4.393685	62.036388	40.370418	10.455660	-9.399049	60.083404	40.091805
-0.635000	3.029614	-4.103828	101.268469	-0.102597	-0.207918	-0.045025	86.441669	2.227424	0.164702	16.370852	-0.134000	-22.778625	-35.836383	39.125838	7.918190	50.906664	33.807094	25.009762	4.576330	48.519928	30.343153	15.451416	-4.390489	62.024023	40.356861	10.431883	-9.368567	60.077615	40.098158
